<?xml version="1.0" encoding="UTF-8" standalone="no"?>
<svg
   enable-background="new 0 0 128 128"
   viewBox="0 0 128 128"
   version="1.1"
   id="svg204"
   sodipodi:docname="camera-clique.svg"
   xml:space="preserve"
   inkscape:version="1.2.2 (c497a0e, 2023-04-06, custom)"
   inkscape:export-filename="camera-junto-ideal.svg"
   inkscape:export-xdpi="96"
   inkscape:export-ydpi="96"
   xmlns:inkscape="http://www.inkscape.org/namespaces/inkscape"
   xmlns:sodipodi="http://sodipodi.sourceforge.net/DTD/sodipodi-0.dtd"
   xmlns="http://www.w3.org/2000/svg"
   xmlns:svg="http://www.w3.org/2000/svg"><defs
     id="defs208" /><sodipodi:namedview
     id="namedview206"
     pagecolor="#ffffff"
     bordercolor="#000000"
     borderopacity="0.25"
     inkscape:showpageshadow="2"
     inkscape:pageopacity="0.0"
     inkscape:pagecheckerboard="0"
     inkscape:deskcolor="#d1d1d1"
     showgrid="false"
     inkscape:zoom="1.6290957"
     inkscape:cx="67.522123"
     inkscape:cy="117.24296"
     inkscape:window-width="1366"
     inkscape:window-height="683"
     inkscape:window-x="0"
     inkscape:window-y="0"
     inkscape:window-maximized="1"
     inkscape:current-layer="layer1" /><linearGradient
     id="a"
     x1="64"
     x2="64"
     y1="4125.5"
     y2="4247.7"
     gradientTransform="translate(0,-4122)"
     gradientUnits="userSpaceOnUse"><stop
       stop-color="#903E97"
       offset="0"
       id="stop191" /><stop
       stop-color="#783293"
       offset=".6578"
       id="stop193" /><stop
       stop-color="#783293"
       offset="1"
       id="stop195" /></linearGradient><g
     inkscape:groupmode="layer"
     id="layer1"
     inkscape:label="Layer 1"><g
       id="g9613"><g
         style="opacity:1;fill:#3030ff;fill-opacity:1"
         id="g6233"
         transform="matrix(7.8379337,0,0,7.8379337,1.437751,2.0995443)"><circle
           cx="8"
           cy="8"
           r="8"
           id="circle6224"
           style="fill:#3030ff;fill-opacity:1" /></g><g
         style="fill:#000000"
         id="g8425"
         transform="matrix(6.4011004,0,0,6.4011004,13.294886,11.601936)"><path
           d="m 10.5,8.5 a 2.5,2.5 0 1 1 -5,0 2.5,2.5 0 0 1 5,0"
           id="path8413"
           style="fill:#000000" /><path
           d="m 2,3.6875537 a 2,2 0 0 0 -2,2 v 6.0000003 a 2,2 0 0 0 2,2 h 12 a 2,2 0 0 0 2,-2 V 5.6875537 a 2,2 0 0 0 -2,-2 h -1.172 a 2,2 0 0 1 -1.414,-0.586 l -0.828,-0.828 a 2,2 0 0 0 -1.414,-0.586 H 6.828 a 2,2 0 0 0 -1.414,0.586 l -0.828,0.828 a 2,2 0 0 1 -1.414,0.586 z m 0.5,2 a 0.5,0.5 0 1 1 0,-1 0.5,0.5 0 0 1 0,1 m 9,2.5 a 3.5000002,3.5000002 0 1 1 -7,0 3.5000002,3.5000002 0 0 1 7,0"
           id="path8415"
           style="fill:#000000" /></g></g><path
       style="fill:#ff0000;fill-opacity:1;stroke:#000000;stroke-width:0.920756"
       d="M 56.702473,126.77149 C 35.517427,124.10611 16.775884,110.42844 7.6702695,90.987571 -0.15751545,74.274912 -0.16885105,55.269077 7.6390233,38.598817 10.924089,31.585012 14.469364,26.564268 20.208079,20.798779 c 24.327418,-24.4409151 63.548455,-24.4409151 87.875881,0 5.73871,5.765489 9.28398,10.786233 12.56905,17.800038 14.55587,31.077618 0.96105,67.998283 -30.459862,82.722623 -9.806029,4.59526 -23.095543,6.75791 -33.490675,5.45005 z M 105.75112,99.106541 c 3.57162,-0.765971 7.06842,-3.467881 8.74738,-6.758921 1.13954,-2.233663 1.20987,-3.694608 1.20987,-25.132416 0,-25.56977 0.011,-25.50031 -4.66006,-29.350608 -2.88473,-2.377843 -6.20702,-3.182778 -13.136616,-3.182778 -6.819458,0 -7.996559,-0.526368 -13.911221,-6.220722 -2.415665,-2.32569 -5.376234,-4.639715 -6.579036,-5.142277 -2.983999,-1.246793 -22.802614,-1.309631 -25.741665,-0.08162 -1.095366,0.457674 -4.407682,3.070525 -7.3607,5.806337 -5.95003,5.512379 -5.783138,5.449556 -15.46871,5.822841 -8.501452,0.327649 -12.403374,2.434138 -14.702803,7.937447 -1.412262,3.380018 -1.412262,45.442739 0,48.822756 1.620305,3.877936 4.7815,6.477642 9.178265,7.548028 2.995816,0.729324 78.999826,0.666566 82.425296,-0.06807 z"
       id="path535" /><path
       style="fill:#ff0000;fill-opacity:1;stroke:#000000;stroke-width:0.920756"
       d="m 59.693192,85.615309 c -6.757121,-1.702694 -13.415148,-7.57472 -15.819359,-13.951834 -1.087162,-2.883673 -1.285388,-4.479834 -1.086049,-8.745133 0.209223,-4.476773 0.535633,-5.763957 2.298839,-9.065362 2.451464,-4.590091 5.704347,-7.682781 10.392002,-9.88023 2.927077,-1.372137 4.288223,-1.617224 8.983506,-1.617563 5.015075,-3.63e-4 5.91819,0.188696 9.635628,2.017128 16.672464,8.2004 16.432322,31.612379 -0.405074,39.491547 -4.255023,1.991166 -10.130873,2.726281 -13.999493,1.751447 z m 12.266724,-5.299353 c 11.647986,-5.500384 11.667447,-22.907223 0.03209,-28.705364 -2.524513,-1.258018 -4.064873,-1.580071 -7.506138,-1.569356 -5.00914,0.0156 -8.175139,1.230254 -11.284716,4.329459 -9.241979,9.211157 -4.647099,25.086075 7.965763,27.521025 3.659576,0.706492 6.98946,0.220333 10.792997,-1.575764 z"
       id="path537" /><path
       style="fill:#ff0000;fill-opacity:1;stroke:#000000;stroke-width:0.920756"
       d="m 27.438535,46.8358 c -0.946844,-0.946845 -0.946844,-3.104483 0,-4.051328 2.230263,-2.230262 5.727068,0.658501 4.21565,3.482612 -0.767843,1.434728 -3.04274,1.741625 -4.21565,0.568716 z"
       id="path539" /></g></svg>
