<?xml version="1.0" encoding="UTF-8" standalone="no"?>
<svg
   enable-background="new 0 0 128 128"
   viewBox="0 0 128 128"
   version="1.1"
   id="svg204"
   sodipodi:docname="galeria-junto-ideal.svg"
   xml:space="preserve"
   inkscape:version="1.2.2 (c497a0e, 2023-04-06, custom)"
   inkscape:export-filename="camera-junto-ideal.svg"
   inkscape:export-xdpi="96"
   inkscape:export-ydpi="96"
   xmlns:inkscape="http://www.inkscape.org/namespaces/inkscape"
   xmlns:sodipodi="http://sodipodi.sourceforge.net/DTD/sodipodi-0.dtd"
   xmlns="http://www.w3.org/2000/svg"
   xmlns:svg="http://www.w3.org/2000/svg"><defs
     id="defs208" /><sodipodi:namedview
     id="namedview206"
     pagecolor="#ffffff"
     bordercolor="#000000"
     borderopacity="0.25"
     inkscape:showpageshadow="2"
     inkscape:pageopacity="0.0"
     inkscape:pagecheckerboard="0"
     inkscape:deskcolor="#d1d1d1"
     showgrid="false"
     inkscape:zoom="1.7469907"
     inkscape:cx="214.65483"
     inkscape:cy="117.34464"
     inkscape:window-width="1366"
     inkscape:window-height="683"
     inkscape:window-x="0"
     inkscape:window-y="0"
     inkscape:window-maximized="1"
     inkscape:current-layer="layer1" /><linearGradient
     id="a"
     x1="64"
     x2="64"
     y1="4125.5"
     y2="4247.7"
     gradientTransform="translate(0,-4122)"
     gradientUnits="userSpaceOnUse"><stop
       stop-color="#903E97"
       offset="0"
       id="stop191" /><stop
       stop-color="#783293"
       offset=".6578"
       id="stop193" /><stop
       stop-color="#783293"
       offset="1"
       id="stop195" /></linearGradient><g
     inkscape:groupmode="layer"
     id="layer1"
     inkscape:label="Layer 1"><g
       id="g9841"><g
         style="fill:#3030ff;fill-opacity:1"
         id="g6233"
         transform="matrix(7.8379337,0,0,7.8379337,1.437751,2.0995443)"><circle
           cx="8"
           cy="8"
           r="8"
           id="circle6224"
           style="fill:#3030ff;fill-opacity:1" /></g></g><g
       style="fill:#000000"
       id="g9907"
       transform="matrix(4.8228404,0,0,4.8228404,25.611699,25.3138)"><path
         d="m 7,2.5 a 2.5,2.5 0 1 1 -5,0 2.5,2.5 0 0 1 5,0 m 4.225,4.053 a 0.5,0.5 0 0 0 -0.577,0.093 l -3.71,4.71 -2.66,-2.772 A 0.5,0.5 0 0 0 3.648,8.646 L 0.002,13 v 2 a 1,1 0 0 0 1,1 h 14 a 1,1 0 0 0 1,-1 v -4.5 z"
         id="path9898"
         style="fill:#000000" /></g></g></svg>
