<?xml version="1.0" encoding="UTF-8" standalone="no"?>
<svg
   enable-background="new 0 0 128 128"
   viewBox="0 0 128 128"
   version="1.1"
   id="svg204"
   sodipodi:docname="galeria-clique.svg"
   xml:space="preserve"
   inkscape:version="1.2.2 (c497a0e, 2023-04-06, custom)"
   inkscape:export-filename="camera-junto-ideal.svg"
   inkscape:export-xdpi="96"
   inkscape:export-ydpi="96"
   xmlns:inkscape="http://www.inkscape.org/namespaces/inkscape"
   xmlns:sodipodi="http://sodipodi.sourceforge.net/DTD/sodipodi-0.dtd"
   xmlns="http://www.w3.org/2000/svg"
   xmlns:svg="http://www.w3.org/2000/svg"><defs
     id="defs208" /><sodipodi:namedview
     id="namedview206"
     pagecolor="#ffffff"
     bordercolor="#000000"
     borderopacity="0.25"
     inkscape:showpageshadow="2"
     inkscape:pageopacity="0.0"
     inkscape:pagecheckerboard="0"
     inkscape:deskcolor="#d1d1d1"
     showgrid="false"
     inkscape:zoom="1.7469907"
     inkscape:cx="214.65483"
     inkscape:cy="117.34464"
     inkscape:window-width="1366"
     inkscape:window-height="683"
     inkscape:window-x="0"
     inkscape:window-y="0"
     inkscape:window-maximized="1"
     inkscape:current-layer="layer1" /><linearGradient
     id="a"
     x1="64"
     x2="64"
     y1="4125.5"
     y2="4247.7"
     gradientTransform="translate(0,-4122)"
     gradientUnits="userSpaceOnUse"><stop
       stop-color="#903E97"
       offset="0"
       id="stop191" /><stop
       stop-color="#783293"
       offset=".6578"
       id="stop193" /><stop
       stop-color="#783293"
       offset="1"
       id="stop195" /></linearGradient><g
     inkscape:groupmode="layer"
     id="layer1"
     inkscape:label="Layer 1"><g
       id="g9841"><g
         style="fill:#3030ff;fill-opacity:1"
         id="g6233"
         transform="matrix(7.8379337,0,0,7.8379337,1.437751,2.0995443)"><circle
           cx="8"
           cy="8"
           r="8"
           id="circle6224"
           style="fill:#3030ff;fill-opacity:1" /></g></g><g
       style="fill:#000000"
       id="g9907"
       transform="matrix(4.8228404,0,0,4.8228404,25.611699,25.3138)"><path
         d="m 7,2.5 a 2.5,2.5 0 1 1 -5,0 2.5,2.5 0 0 1 5,0 m 4.225,4.053 a 0.5,0.5 0 0 0 -0.577,0.093 l -3.71,4.71 -2.66,-2.772 A 0.5,0.5 0 0 0 3.648,8.646 L 0.002,13 v 2 a 1,1 0 0 0 1,1 h 14 a 1,1 0 0 0 1,-1 v -4.5 z"
         id="path9898"
         style="fill:#000000" /></g><path
       style="fill:#ffffff;stroke:#000000;stroke-width:0.858619"
       d="M 56.501969,126.74896 C 29.690972,123.26678 7.8915446,102.75089 2.8689287,76.273812 1.7780519,70.523175 1.7516369,58.944287 2.8166955,53.377728 7.6091785,28.329681 26.859007,8.8484312 51.92104,3.6830517 56.862972,2.664501 59.152833,2.5122581 66.113689,2.7394446 82.79522,3.283892 95.351114,8.5915804 107.42532,20.202901 c 19.33613,18.59484 24.52325,46.855905 13.03482,71.017865 -3.4845,7.328454 -6.94219,12.249524 -12.53851,17.845134 -13.410417,13.40869 -32.852026,20.0946 -51.419661,17.68306 z m 44.042581,-24.61933 c 2.31075,-1.23668 2.77598,-3.806966 2.77598,-15.336827 V 75.952436 L 91.484797,66.167553 C 84.975146,60.78587 79.243862,56.386614 78.74861,56.391435 c -1.433671,0.01396 -1.693558,0.298504 -10.571956,11.575017 -4.644364,5.898841 -8.645805,10.849697 -8.892085,11.001908 -0.246281,0.15221 -3.353956,-2.691486 -6.905944,-6.319324 -5.063781,-5.171911 -6.744605,-6.558615 -7.78485,-6.422604 -0.920162,0.120309 -4.047946,3.418375 -10.207393,10.763102 l -8.880703,10.589639 0.0015,6.010335 c 0.0016,6.17594 0.30425,7.184462 2.541,8.467232 1.571192,0.90108 70.818747,0.9707 72.496321,0.0729 z M 52.243249,48.627776 c 8.114216,-3.390336 9.893029,-14.137288 3.33979,-20.177851 -3.285823,-3.028765 -6.399627,-3.92517 -10.622062,-3.057888 -3.614191,0.742349 -6.585646,2.892687 -8.491621,6.145088 -1.099074,1.875486 -1.28183,2.89735 -1.135523,6.349156 0.147637,3.483199 0.436221,4.485688 1.882307,6.538802 3.236163,4.594618 9.737443,6.412857 15.027109,4.202693 z"
       id="path188" /></g></svg>
