<?xml version="1.0" encoding="UTF-8" standalone="no"?>
<svg
   enable-background="new 0 0 128 128"
   viewBox="0 0 128 128"
   version="1.1"
   id="svg204"
   sodipodi:docname="video-clique.svg"
   xml:space="preserve"
   inkscape:version="1.2.2 (c497a0e, 2023-04-06, custom)"
   inkscape:export-filename="camera-junto-ideal.svg"
   inkscape:export-xdpi="96"
   inkscape:export-ydpi="96"
   xmlns:inkscape="http://www.inkscape.org/namespaces/inkscape"
   xmlns:sodipodi="http://sodipodi.sourceforge.net/DTD/sodipodi-0.dtd"
   xmlns="http://www.w3.org/2000/svg"
   xmlns:svg="http://www.w3.org/2000/svg"><defs
     id="defs208" /><sodipodi:namedview
     id="namedview206"
     pagecolor="#ffffff"
     bordercolor="#000000"
     borderopacity="0.25"
     inkscape:showpageshadow="2"
     inkscape:pageopacity="0.0"
     inkscape:pagecheckerboard="0"
     inkscape:deskcolor="#d1d1d1"
     showgrid="false"
     inkscape:zoom="1.7469907"
     inkscape:cx="214.65483"
     inkscape:cy="117.34464"
     inkscape:window-width="1366"
     inkscape:window-height="683"
     inkscape:window-x="0"
     inkscape:window-y="0"
     inkscape:window-maximized="1"
     inkscape:current-layer="layer1" /><linearGradient
     id="a"
     x1="64"
     x2="64"
     y1="4125.5"
     y2="4247.7"
     gradientTransform="translate(0,-4122)"
     gradientUnits="userSpaceOnUse"><stop
       stop-color="#903E97"
       offset="0"
       id="stop191" /><stop
       stop-color="#783293"
       offset=".6578"
       id="stop193" /><stop
       stop-color="#783293"
       offset="1"
       id="stop195" /></linearGradient><g
     inkscape:groupmode="layer"
     id="layer1"
     inkscape:label="Layer 1"><g
       id="g9848"><g
         id="g9841"><g
           style="fill:#3030ff;fill-opacity:1"
           id="g6233"
           transform="matrix(7.8379337,0,0,7.8379337,1.437751,2.0995443)"><circle
             cx="8"
             cy="8"
             r="8"
             id="circle6224"
             style="fill:#3030ff;fill-opacity:1" /></g></g><g
         style="fill:#000000"
         id="g9781"
         transform="matrix(0.90147705,0,0,0.90147705,172.19758,114.44307)"><path
           fill-rule="evenodd"
           d="m -169.49012,-74.72476 a 12.895354,12.895354 0 0 1 12.89535,-12.895352 h 48.35758 a 12.895354,12.895354 0 0 1 12.785748,11.206062 l 20.052277,-8.910696 a 6.4476769,6.4476769 0 0 1 9.071883,5.886735 v 48.112563 a 6.4476769,6.4476769 0 0 1 -9.065433,5.88673 l -20.058727,-8.91069 a 12.895354,12.895354 0 0 1 -12.785748,11.206064 h -48.35758 A 12.895354,12.895354 0 0 1 -169.49012,-36.0387 Z"
           id="path9772"
           style="stroke-width:6.44768;fill:#000000" /></g></g><path
       style="fill:#ff0000;stroke:#000000;stroke-width:0.858619"
       d="M 56.501969,126.74896 C 29.690972,123.26678 7.8915446,102.75089 2.8689287,76.273812 1.7780519,70.523175 1.7516369,58.944287 2.8166955,53.377728 7.6091785,28.329681 26.859007,8.8484312 51.92104,3.6830517 56.862972,2.664501 59.152833,2.5122581 66.113689,2.7394446 82.79522,3.283892 95.351114,8.5915804 107.42532,20.202901 c 19.33613,18.59484 24.52325,46.855905 13.03482,71.017865 -3.4845,7.328454 -6.94219,12.249524 -12.53851,17.845134 -13.410417,13.40869 -32.852026,20.0946 -51.419661,17.68306 z M 81.34424,91.742166 c 2.279056,-1.579849 4.056844,-4.015843 4.724484,-6.473658 0.363282,-1.337369 0.427781,-1.318399 10.061473,2.958544 10.860393,4.821549 12.248913,4.995505 14.883403,1.864595 l 1.46553,-1.741692 V 64.308499 40.267045 l -1.67321,-1.673206 c -2.60412,-2.604135 -4.58651,-2.29584 -15.005942,2.333683 -4.959952,2.203789 -9.140226,4.00689 -9.289489,4.00689 -0.149262,0 -0.430975,-0.726598 -0.626025,-1.614662 -0.518881,-2.362458 -3.603849,-5.818051 -6.278579,-7.032887 -2.148489,-0.975822 -4.232753,-1.059307 -26.735431,-1.070899 l -24.405286,-0.01257 -3.050873,1.593795 c -2.469784,1.290231 -3.354437,2.174884 -4.644668,4.644668 l -1.593795,3.050873 0.01257,20.112188 c 0.01146,18.328907 0.10627,20.315209 1.069314,22.401843 1.151638,2.495262 2.834231,4.22068 5.500863,5.640865 1.510977,0.80471 4.817125,0.899015 27.525422,0.785116 l 25.808183,-0.129439 z"
       id="path135" /></g></svg>
