<?xml version="1.0" encoding="UTF-8" standalone="no"?>
<svg
   enable-background="new 0 0 128 128"
   viewBox="0 0 128 128"
   version="1.1"
   id="svg204"
   sodipodi:docname="video-junto-ideal.svg"
   xml:space="preserve"
   inkscape:version="1.2.2 (c497a0e, 2023-04-06, custom)"
   inkscape:export-filename="camera-junto-ideal.svg"
   inkscape:export-xdpi="96"
   inkscape:export-ydpi="96"
   xmlns:inkscape="http://www.inkscape.org/namespaces/inkscape"
   xmlns:sodipodi="http://sodipodi.sourceforge.net/DTD/sodipodi-0.dtd"
   xmlns="http://www.w3.org/2000/svg"
   xmlns:svg="http://www.w3.org/2000/svg"><defs
     id="defs208" /><sodipodi:namedview
     id="namedview206"
     pagecolor="#ffffff"
     bordercolor="#000000"
     borderopacity="0.25"
     inkscape:showpageshadow="2"
     inkscape:pageopacity="0.0"
     inkscape:pagecheckerboard="0"
     inkscape:deskcolor="#d1d1d1"
     showgrid="false"
     inkscape:zoom="1.7469907"
     inkscape:cx="214.65483"
     inkscape:cy="117.34464"
     inkscape:window-width="1366"
     inkscape:window-height="683"
     inkscape:window-x="0"
     inkscape:window-y="0"
     inkscape:window-maximized="1"
     inkscape:current-layer="layer1" /><linearGradient
     id="a"
     x1="64"
     x2="64"
     y1="4125.5"
     y2="4247.7"
     gradientTransform="translate(0,-4122)"
     gradientUnits="userSpaceOnUse"><stop
       stop-color="#903E97"
       offset="0"
       id="stop191" /><stop
       stop-color="#783293"
       offset=".6578"
       id="stop193" /><stop
       stop-color="#783293"
       offset="1"
       id="stop195" /></linearGradient><g
     inkscape:groupmode="layer"
     id="layer1"
     inkscape:label="Layer 1"><g
       id="g9848"><g
         id="g9841"><g
           style="fill:#3030ff;fill-opacity:1"
           id="g6233"
           transform="matrix(7.8379337,0,0,7.8379337,1.437751,2.0995443)"><circle
             cx="8"
             cy="8"
             r="8"
             id="circle6224"
             style="fill:#3030ff;fill-opacity:1" /></g></g><g
         style="fill:#000000"
         id="g9781"
         transform="matrix(0.90147705,0,0,0.90147705,172.19758,114.44307)"><path
           fill-rule="evenodd"
           d="m -169.49012,-74.72476 a 12.895354,12.895354 0 0 1 12.89535,-12.895352 h 48.35758 a 12.895354,12.895354 0 0 1 12.785748,11.206062 l 20.052277,-8.910696 a 6.4476769,6.4476769 0 0 1 9.071883,5.886735 v 48.112563 a 6.4476769,6.4476769 0 0 1 -9.065433,5.88673 l -20.058727,-8.91069 a 12.895354,12.895354 0 0 1 -12.785748,11.206064 h -48.35758 A 12.895354,12.895354 0 0 1 -169.49012,-36.0387 Z"
           id="path9772"
           style="stroke-width:6.44768;fill:#000000" /></g></g></g></svg>
